{"title":"New.York.I.Love.You.2009.LIMITED.DVDRip.XviD-AMIABLE","uid":5297700,"size":739843247,"categoryP":"video","categoryS":"movies","magnet":"?xt=urn:btih:60816dc7f335550cbae32aedbd8efe5fcfc3d084&amp;dn=New.York.I.Love.You.2009.LIMITED.DVDRip.XviD-AMIABLE&amp;tr=udp%3A%2F%2Ftracker.openbittorrent.com%3A80&amp;tr=udp%3A%2F%2Fopen.demonii.com%3A1337&amp;tr=udp%3A%2F%2Ftracker.coppersurfer.tk%3A6969&amp;tr=udp%3A%2F%2Fexodus.desync.com%3A6969","seeders":16,"leechers":4,"uploader":"IwannaFan2","files":4,"time":1264112760,"description":"Filename:\nNew.York.I.Love.You.2009.LIMITED.DVDRip.XviD-AMIABLE &lt;a href=&quot;\nhttp://www.imdb.com/title/tt0808399/&quot; rel=&quot;nofollow&quot; target=&quot;_NEW&quot;&gt;\nhttp://www.imdb.com/title/tt0808399/&lt;/a&gt;\n\nFormat                           : AVI\nFormat/Info                      : Audio Video Interleave\nFile size                        : 701 MiB\nDuration                         : 1h 43mn\nOverall bit rate                 : 948 Kbps\nWriting application              : Nandub v1.0rc2\nWriting library                  : Nandub build 1853/release\n\nVideo\nID                               : 0\nFormat                           : MPEG-4 Visual\nFormat profile                   : AdvancedSimple@L5\nFormat settings, BVOP            : Yes\nFormat settings, QPel            : No\nFormat settings, GMC             : No warppoints\nFormat settings, Matrix          : Default (H.263)\nMuxing mode                      : Packed bitstream\nCodec ID                         : XVID\nCodec ID/Hint                    : XviD\nDuration                         : 1h 43mn\nBit rate                         : 803 Kbps\nWidth                            : 576 pixels\nHeight                           : 320 pixels\nDisplay aspect ratio             : 16:9\n\nFrame rate                       : 23.976 fps\nResolution                       : 24 bits\nColorimetry                      : 4:2:0\nScan type                        : Progressive\nBits/(Pixel*Frame)               : 0.182\nStream size                      : 594 MiB (85%)\nWriting library                  : XviD 1.3.0.dev55\n\nAudio\nID                               : 1\nFormat                           : MPEG Audio\nFormat version                   : Version 1\nFormat profile                   : Layer 3\nFormat_Settings_Mode             : Joint stereo / MS Stereo\nCodec ID                         : 55\nCodec ID/Hint                    : MP3\nDuration                         : 1h 43mn\nBit rate mode                    : Constant\nBit rate                         : 32.0 Kbps\nChannel(s)                       : 2 channels\nSampling rate                    : 48.0 KHz\nResolution                       : 16 bits\nVideo delay                      : 8ms\nStream size                      : 97.6 MiB (14%)\nAlignment                        : Aligned on interleaves\nInterleave, duration             : 24 ms (0.58 video frame)\nInterleave, preload duration     : 139 ms\n","torrent":{"xt":"urn:btih:60816dc7f335550cbae32aedbd8efe5fcfc3d084","amp;dn":"New.York.I.Love.You.2009.LIMITED.DVDRip.XviD-AMIABLE","amp;tr":["udp%3A%2F%2Ftracker.openbittorrent.com%3A80","udp%3A%2F%2Fopen.demonii.com%3A1337","udp%3A%2F%2Ftracker.coppersurfer.tk%3A6969","udp%3A%2F%2Fexodus.desync.com%3A6969"],"infoHash":"60816dc7f335550cbae32aedbd8efe5fcfc3d084","infoHashBuffer":{"type":"Buffer","data":[96,129,109,199,243,53,85,12,186,227,42,237,189,142,254,95,207,195,208,132]},"announce":[],"urlList":[]}}